REM DIRINDEX 1\6,1\2\7,1\2\8,1\2\9,1\3\10,1\3\11,1\4\12,1\4\13,1\4\14,1\5\15,1\5\16,1\5\17
REM DIRNAME folder01,folder02,folder03,folder04,folder05,folder06,folder07,folder08,folder09,folder10,folder11,folder12,folder13,folder14,folder15,folder16,folder17
TITLE ""
FILE "P2Q_j_1198-1211.mp3" MP3
  TRACK 01 AUDIO
    TITLE "12:cjc040_0338"
    INDEX 01 00:00:00
  TRACK 02 AUDIO
    TITLE "0:"
    INDEX 01 00:01:21
  TRACK 03 AUDIO
    TITLE "13:cjc040_0339"
    INDEX 01 00:02:02
  TRACK 04 AUDIO
    TITLE "0:"
    INDEX 01 00:03:25
  TRACK 05 AUDIO
    TITLE "14:cjc040_0340"
    INDEX 01 00:04:01
  TRACK 06 AUDIO
    TITLE "0:"
    INDEX 01 00:08:72
  TRACK 07 AUDIO
    TITLE "12:cjc040_0341"
    INDEX 01 00:09:47
  TRACK 08 AUDIO
    TITLE "0:"
    INDEX 01 00:11:15
  TRACK 09 AUDIO
    TITLE "13:cjc040_0342"
    INDEX 01 00:11:70
  TRACK 10 AUDIO
    TITLE "0:"
    INDEX 01 00:13:55
  TRACK 11 AUDIO
    TITLE "14:cjc040_0343"
    INDEX 01 00:14:35
  TRACK 12 AUDIO
    TITLE "0:"
    INDEX 01 00:20:61
  TRACK 13 AUDIO
    TITLE "12:cjc040_0344"
    INDEX 01 00:21:43
  TRACK 14 AUDIO
    TITLE "0:"
    INDEX 01 00:23:55
  TRACK 15 AUDIO
    TITLE "13:cjc040_0345"
    INDEX 01 00:24:29
  TRACK 16 AUDIO
    TITLE "0:"
    INDEX 01 00:26:24
  TRACK 17 AUDIO
    TITLE "14:cjc040_0346"
    INDEX 01 00:26:73
  TRACK 18 AUDIO
    TITLE "0:"
    INDEX 01 00:29:27
  TRACK 19 AUDIO
    TITLE "12:cjc040_0347"
    INDEX 01 00:30:05
  TRACK 20 AUDIO
    TITLE "0:"
    INDEX 01 00:31:55
  TRACK 21 AUDIO
    TITLE "13:cjc040_0348"
    INDEX 01 00:32:41
  TRACK 22 AUDIO
    TITLE "0:"
    INDEX 01 00:34:24
  TRACK 23 AUDIO
    TITLE "14:cjc040_0349"
    INDEX 01 00:35:02
  TRACK 24 AUDIO
    TITLE "0:"
    INDEX 01 00:39:05
  TRACK 25 AUDIO
    TITLE "12:cjc040_0350"
    INDEX 01 00:39:60
  TRACK 26 AUDIO
    TITLE "0:"
    INDEX 01 00:41:30
  TRACK 27 AUDIO
    TITLE "13:cjc040_0351"
    INDEX 01 00:42:12
  TRACK 28 AUDIO
    TITLE "0:"
    INDEX 01 00:44:69
  TRACK 29 AUDIO
    TITLE "14:cjc040_0352"
    INDEX 01 00:45:45
  TRACK 30 AUDIO
    TITLE "0:"
    INDEX 01 00:51:18
  TRACK 31 AUDIO
    TITLE "12:cjc040_0353"
    INDEX 01 00:51:73
  TRACK 32 AUDIO
    TITLE "0:"
    INDEX 01 00:54:07
  TRACK 33 AUDIO
    TITLE "13:cjc040_0354"
    INDEX 01 00:54:66
  TRACK 34 AUDIO
    TITLE "0:"
    INDEX 01 00:56:49
  TRACK 35 AUDIO
    TITLE "14:cjc040_0355"
    INDEX 01 00:57:25
  TRACK 36 AUDIO
    TITLE "0:"
    INDEX 01 01:02:69
  TRACK 37 AUDIO
    TITLE "12:cjc040_0356"
    INDEX 01 01:03:45
  TRACK 38 AUDIO
    TITLE "0:"
    INDEX 01 01:05:40
  TRACK 39 AUDIO
    TITLE "13:cjc040_0357"
    INDEX 01 01:06:18
  TRACK 40 AUDIO
    TITLE "0:"
    INDEX 01 01:07:49
  TRACK 41 AUDIO
    TITLE "14:cjc040_0358"
    INDEX 01 01:08:19
  TRACK 42 AUDIO
    TITLE "0:"
    INDEX 01 01:14:51
  TRACK 43 AUDIO
    TITLE "12:cjc040_0359"
    INDEX 01 01:15:29
  TRACK 44 AUDIO
    TITLE "0:"
    INDEX 01 01:16:61
  TRACK 45 AUDIO
    TITLE "13:cjc040_0360"
    INDEX 01 01:17:41
  TRACK 46 AUDIO
    TITLE "0:"
    INDEX 01 01:19:34
  TRACK 47 AUDIO
    TITLE "14:cjc040_0361"
    INDEX 01 01:20:16
  TRACK 48 AUDIO
    TITLE "0:"
    INDEX 01 01:26:01
  TRACK 49 AUDIO
    TITLE "12:cjc040_0362"
    INDEX 01 01:26:56
  TRACK 50 AUDIO
    TITLE "0:"
    INDEX 01 01:27:61
  TRACK 51 AUDIO
    TITLE "13:cjc040_0363"
    INDEX 01 01:28:41
  TRACK 52 AUDIO
    TITLE "0:"
    INDEX 01 01:30:22
  TRACK 53 AUDIO
    TITLE "14:cjc040_0364"
    INDEX 01 01:30:71
  TRACK 54 AUDIO
    TITLE "0:"
    INDEX 01 01:38:00
  TRACK 55 AUDIO
    TITLE "12:cjc040_0365"
    INDEX 01 01:38:57
  TRACK 56 AUDIO
    TITLE "0:"
    INDEX 01 01:40:19
  TRACK 57 AUDIO
    TITLE "13:cjc040_0366"
    INDEX 01 01:41:01
  TRACK 58 AUDIO
    TITLE "0:"
    INDEX 01 01:43:07
  TRACK 59 AUDIO
    TITLE "14:cjc040_0367"
    INDEX 01 01:43:60
  TRACK 60 AUDIO
    TITLE "0:"
    INDEX 01 01:50:66
  TRACK 61 AUDIO
    TITLE "12:cjc040_0368"
    INDEX 01 01:51:48
  TRACK 62 AUDIO
    TITLE "0:"
    INDEX 01 01:53:21
  TRACK 63 AUDIO
    TITLE "13:cjc040_0369"
    INDEX 01 01:54:01
  TRACK 64 AUDIO
    TITLE "0:"
    INDEX 01 01:56:67
  TRACK 65 AUDIO
    TITLE "14:cjc040_0370"
    INDEX 01 01:57:43
  TRACK 66 AUDIO
    TITLE "0:"
    INDEX 01 02:02:20
  TRACK 67 AUDIO
    TITLE "12:cjc040_0371"
    INDEX 01 02:02:73
  TRACK 68 AUDIO
    TITLE "0:"
    INDEX 01 02:04:51
  TRACK 69 AUDIO
    TITLE "13:cjc040_0372"
    INDEX 01 02:05:36
  TRACK 70 AUDIO
    TITLE "0:"
    INDEX 01 02:06:61
  TRACK 71 AUDIO
    TITLE "14:cjc040_0373"
    INDEX 01 02:07:41
  TRACK 72 AUDIO
    TITLE "0:"
    INDEX 01 02:12:03
  TRACK 73 AUDIO
    TITLE "12:cjc040_0374"
    INDEX 01 02:12:58
  TRACK 74 AUDIO
    TITLE "0:"
    INDEX 01 02:14:37
  TRACK 75 AUDIO
    TITLE "13:cjc040_0375"
    INDEX 01 02:15:17
  TRACK 76 AUDIO
    TITLE "0:"
    INDEX 01 02:17:63
  TRACK 77 AUDIO
    TITLE "14:cjc040_0376"
    INDEX 01 02:18:43
  TRACK 78 AUDIO
    TITLE "0:"
    INDEX 01 02:22:45
  TRACK 79 AUDIO
    TITLE "12:cjc040_0377"
    INDEX 01 02:23:28
  TRACK 80 AUDIO
    TITLE "0:"
    INDEX 01 02:25:21
  TRACK 81 AUDIO
    TITLE "13:cjc040_0378"
    INDEX 01 02:26:05
  TRACK 82 AUDIO
    TITLE "0:"
    INDEX 01 02:28:12
  TRACK 83 AUDIO
    TITLE "14:cjc040_0379"
    INDEX 01 02:28:69
  TRACK 84 AUDIO
    TITLE "0:"
    INDEX 01 02:35:18
